<svg xmlns="http://www.w3.org/2000/svg" viewBox="0 0 64 64" aria-hidden="true">
  <defs>
    <linearGradient id="dt" x1="18%" y1="12%" x2="88%" y2="88%">
      <stop offset="0%" stop-color="#ffffff"/>
      <stop offset="100%" stop-color="#ede9fe"/>
    </linearGradient>
    <linearGradient id="dl" x1="0%" y1="0%" x2="0%" y2="100%">
      <stop offset="0%" stop-color="#f5f3ff"/>
      <stop offset="100%" stop-color="#c4b5fd"/>
    </linearGradient>
    <linearGradient id="dr" x1="0%" y1="0%" x2="100%" y2="100%">
      <stop offset="0%" stop-color="#ede9fe"/>
      <stop offset="100%" stop-color="#8b5cf6"/>
    </linearGradient>
    <radialGradient id="ts" cx="35%" cy="28%" r="55%">
      <stop offset="0%" stop-color="#ffffff" stop-opacity="0.5"/>
      <stop offset="100%" stop-color="#ffffff" stop-opacity="0"/>
    </radialGradient>
  </defs>
  <path d="M13 23.5L32 33.5L32 56.5L13 46.5Z" fill="url(#dl)" stroke="#6d28d9" stroke-width="0.8" stroke-linejoin="round"/>
  <path d="M32 33.5L51 23.5L51 46.5L32 56.5Z" fill="url(#dr)" stroke="#5b21b6" stroke-width="0.8" stroke-linejoin="round"/>
  <path d="M32 11L51 21L32 31L13 21Z" fill="url(#dt)" stroke="#7c3aed" stroke-width="0.8" stroke-linejoin="round"/>
  <path d="M32 11L51 21L32 31L13 21Z" fill="url(#ts)"/>
  <circle cx="32" cy="21" r="2.2" fill="#7c3aed"/>
  <circle cx="25.8" cy="17.2" r="1.7" fill="#facc15"/>
  <circle cx="38.2" cy="17.2" r="1.7" fill="#facc15"/>
  <circle cx="25.8" cy="24.8" r="1.7" fill="#facc15"/>
  <circle cx="38.2" cy="24.8" r="1.7" fill="#facc15"/>
  <circle cx="42" cy="31.5" r="1.5" fill="#facc15"/>
  <circle cx="44.8" cy="35.8" r="1.5" fill="#7c3aed"/>
  <circle cx="40.2" cy="38.2" r="1.5" fill="#facc15"/>
  <circle cx="22.2" cy="32.8" r="1.5" fill="#7c3aed"/>
  <circle cx="20.2" cy="37.8" r="1.5" fill="#facc15"/>
  <ellipse cx="26.8" cy="16.5" rx="5.8" ry="2.8" fill="#ffffff" opacity="0.28" transform="rotate(-28 26.8 16.5)"/>
</svg>
