<svg xmlns="http://www.w3.org/2000/svg" viewBox="0 0 240 64" role="img" aria-label="FC Mobile Cup">
  <defs>
    <linearGradient id="bgGrad" x1="8%" y1="6%" x2="92%" y2="94%">
      <stop offset="0%" stop-color="#6d28d9"/>
      <stop offset="42%" stop-color="#312e81"/>
      <stop offset="100%" stop-color="#020617"/>
    </linearGradient>
    <linearGradient id="goldRing" x1="0%" y1="0%" x2="100%" y2="100%">
      <stop offset="0%" stop-color="#fde68a"/>
      <stop offset="45%" stop-color="#facc15"/>
      <stop offset="100%" stop-color="#b45309"/>
    </linearGradient>
    <linearGradient id="diceTop" x1="18%" y1="12%" x2="88%" y2="88%">
      <stop offset="0%" stop-color="#ffffff"/>
      <stop offset="100%" stop-color="#ede9fe"/>
    </linearGradient>
    <linearGradient id="diceLeft" x1="0%" y1="0%" x2="0%" y2="100%">
      <stop offset="0%" stop-color="#f5f3ff"/>
      <stop offset="100%" stop-color="#c4b5fd"/>
    </linearGradient>
    <linearGradient id="diceRight" x1="0%" y1="0%" x2="100%" y2="100%">
      <stop offset="0%" stop-color="#ede9fe"/>
      <stop offset="100%" stop-color="#8b5cf6"/>
    </linearGradient>
    <radialGradient id="topShine" cx="35%" cy="28%" r="55%">
      <stop offset="0%" stop-color="#ffffff" stop-opacity="0.55"/>
      <stop offset="100%" stop-color="#ffffff" stop-opacity="0"/>
    </radialGradient>
    <linearGradient id="text" x1="0%" y1="0%" x2="100%" y2="0%">
      <stop offset="0%" stop-color="#c4b5fd"/>
      <stop offset="55%" stop-color="#facc15"/>
      <stop offset="100%" stop-color="#fde68a"/>
    </linearGradient>
    <filter id="cardShadow" x="-15%" y="-10%" width="130%" height="140%">
      <feDropShadow dx="0" dy="2" stdDeviation="3" flood-color="#000000" flood-opacity="0.35"/>
    </filter>
  </defs>
  <rect x="1" y="1" width="62" height="62" rx="14" fill="url(#bgGrad)" filter="url(#cardShadow)"/>
  <rect x="1" y="1" width="62" height="62" rx="14" fill="none" stroke="url(#goldRing)" stroke-width="1.2" opacity="0.88"/>
  <ellipse cx="32" cy="54" rx="18" ry="3" fill="#facc15" opacity="0.22"/>
  <g transform="translate(32 33) scale(0.105) translate(-256 -270)">
    <path d="M104 188L256 288L256 452L104 352Z" fill="url(#diceLeft)" stroke="#6d28d9" stroke-width="2.5" stroke-linejoin="round"/>
    <path d="M256 288L408 188L408 352L256 452Z" fill="url(#diceRight)" stroke="#5b21b6" stroke-width="2.5" stroke-linejoin="round"/>
    <path d="M256 88L408 188L256 288L104 188Z" fill="url(#diceTop)" stroke="#7c3aed" stroke-width="2.5" stroke-linejoin="round"/>
    <path d="M256 88L408 188L256 288L104 188Z" fill="url(#topShine)"/>
    <circle cx="256" cy="188" r="15" fill="#7c3aed"/>
    <circle cx="206" cy="158" r="12" fill="#facc15"/>
    <circle cx="306" cy="158" r="12" fill="#facc15"/>
    <circle cx="206" cy="218" r="12" fill="#facc15"/>
    <circle cx="306" cy="218" r="12" fill="#facc15"/>
    <circle cx="336" cy="268" r="11" fill="#facc15"/>
    <circle cx="358" cy="302" r="11" fill="#7c3aed"/>
    <circle cx="318" cy="322" r="11" fill="#facc15"/>
    <circle cx="178" cy="278" r="11" fill="#7c3aed"/>
    <circle cx="162" cy="318" r="11" fill="#facc15"/>
  </g>
  <text x="76" y="28" fill="url(#text)" font-family="system-ui, -apple-system, Segoe UI, sans-serif" font-size="18" font-weight="800" letter-spacing="-0.02em">FC Mobile</text>
  <text x="76" y="48" fill="#e2e8f0" font-family="system-ui, -apple-system, Segoe UI, sans-serif" font-size="16" font-weight="700" letter-spacing="0.02em">FC Cup</text>
</svg>
