<svg xmlns="http://www.w3.org/2000/svg" viewBox="0 0 240 64" role="img" aria-label="FC Mobile Cup">
  <defs>
    <linearGradient id="bg" x1="0" y1="0" x2="1" y2="1">
      <stop offset="0%" stop-color="#0c1a2e"/>
      <stop offset="100%" stop-color="#07111f"/>
    </linearGradient>
    <linearGradient id="text" x1="0" y1="0" x2="1" y2="0">
      <stop offset="0%" stop-color="#4ade80"/>
      <stop offset="55%" stop-color="#38bdf8"/>
      <stop offset="100%" stop-color="#facc15"/>
    </linearGradient>
    <radialGradient id="ball" cx="38%" cy="32%" r="68%">
      <stop offset="0%" stop-color="#1a3d32"/>
      <stop offset="100%" stop-color="#0b1220"/>
    </radialGradient>
  </defs>
  <!-- mark -->
  <rect x="1" y="1" width="62" height="62" rx="14" fill="url(#bg)" stroke="rgba(255,255,255,0.12)" stroke-width="1"/>
  <g fill="#facc15">
    <rect x="30" y="8" width="4" height="4" rx="1"/>
    <path d="M23 14h18v2.5c0 2.2-2 4-4.5 4h-9c-2.5 0-4.5-1.8-4.5-4V14z"/>
    <rect x="27" y="20.5" width="10" height="1.5" rx="0.75" opacity="0.9"/>
  </g>
  <path d="M13 37c0-9 6.5-15 15-13" fill="none" stroke="#3b82f6" stroke-width="2" stroke-linecap="round"/>
  <path d="M27 24l-4-1.5M27 24l-1 4" fill="none" stroke="#3b82f6" stroke-width="2" stroke-linecap="round" stroke-linejoin="round"/>
  <path d="M51 27c0 9-6.5 15-15 13" fill="none" stroke="#4ade80" stroke-width="2" stroke-linecap="round"/>
  <path d="M37 40l4 1.5M37 40l1-4" fill="none" stroke="#4ade80" stroke-width="2" stroke-linecap="round" stroke-linejoin="round"/>
  <circle cx="32" cy="37" r="12.5" fill="url(#ball)" stroke="#4ade80" stroke-width="1.2"/>
  <polygon points="32,31.5 35.2,33.6 34.3,37.2 29.7,37.2 28.8,33.6" fill="#4ade80" opacity="0.9"/>
  <!-- wordmark -->
  <text x="76" y="28" fill="url(#text)" font-family="system-ui, -apple-system, Segoe UI, sans-serif" font-size="18" font-weight="800" letter-spacing="-0.02em">FC Mobile</text>
  <text x="76" y="48" fill="#e2e8f0" font-family="system-ui, -apple-system, Segoe UI, sans-serif" font-size="16" font-weight="700" letter-spacing="0.02em">FC Cup</text>
</svg>
